<?xml version="1.0" encoding="utf-8"?>
<!-- Generator: Adobe Illustrator 26.3.1, SVG Export Plug-In . SVG Version: 6.00 Build 0)  -->
<svg version="1.1" id="Layer_1" xmlns:serif="http://www.serif.com/"
	 xmlns="http://www.w3.org/2000/svg" xmlns:xlink="http://www.w3.org/1999/xlink" x="0px" y="0px" viewBox="0 0 456 456"
	 style="enable-background:new 0 0 456 456;" xml:space="preserve">
<style type="text/css">
	.st0{fill:url(#SVGID_1_);}
	.st1{fill:url(#SVGID_00000162320698181473962530000004275253350428827302_);}
</style>
<linearGradient id="SVGID_1_" gradientUnits="userSpaceOnUse" x1="347.7873" y1="964.6402" x2="107.0953" y2="734.2948" gradientTransform="matrix(1 0 0 1 0 -622)">
	<stop  offset="0" style="stop-color:#E252E0"/>
	<stop  offset="1" style="stop-color:#FDEA96"/>
</linearGradient>
<path class="st0" d="M130.4,101.5h195.3c15.9,0,28.9,12.9,28.9,28.9v195.3c0,15.9-12.9,28.9-28.9,28.9H130.4
	c-15.9,0-28.9-12.9-28.9-28.9V130.4C101.5,114.4,114.4,101.5,130.4,101.5z"/>
<linearGradient id="SVGID_00000025414773745418636890000011347969883136404363_" gradientUnits="userSpaceOnUse" x1="435.5867" y1="30.8368" x2="18.4808" y2="430.0126" gradientTransform="matrix(1 0 0 -1 0 458)">
	<stop  offset="0" style="stop-color:#E252E0"/>
	<stop  offset="1" style="stop-color:#FDEA96"/>
</linearGradient>
<path style="fill:url(#SVGID_00000025414773745418636890000011347969883136404363_);" d="M80,0.5h296c44.2,0,80,35.8,80,80v296
	c0,44.2-35.8,80-80,80H80c-44.2,0-80-35.8-80-80v-296C0,36.3,35.8,0.5,80,0.5z"/>
<image style="overflow:visible;enable-background:new    ;" width="356" height="408" xlink:href="../Images/logo.png"  transform="matrix(0.809 0 0 0.809 84 62.9663)">
</image>
</svg>
