<?xml version="1.0" encoding="UTF-8" standalone="no"?>
<!DOCTYPE svg PUBLIC "-//W3C//DTD SVG 1.1//EN" "http://www.w3.org/Graphics/SVG/1.1/DTD/svg11.dtd">
<svg width="100%" height="100%" viewBox="0 0 24 24" version="1.1" xmlns="http://www.w3.org/2000/svg" xmlns:xlink="http://www.w3.org/1999/xlink" xml:space="preserve" xmlns:serif="http://www.serif.com/" style="fill-rule:evenodd;clip-rule:evenodd;stroke-linejoin:round;stroke-miterlimit:2;">
    <path d="M10.997,20.898L11,21C11,21.552 11.448,22 12,22C12.552,22 13,21.552 13,21C13,19.903 13.903,19 15,19L21,19C22.097,19 23,18.097 23,17L23,4C23,2.903 22.097,2 21,2L16,2C14.372,2 12.915,2.795 12,4.015C11.085,2.795 9.628,2 8,2L3,2C1.903,2 1,2.903 1,4L1,17C1,18.097 1.903,19 3,19L9,19C10.063,19 10.943,19.847 10.997,20.898ZM11,7L11,17.542C10.41,17.198 9.726,17 9,17L3,17L3,4C3,4 8,4 8,4C9.646,4 11,5.354 11,7ZM13,17.542L13,7L13.001,6.923C13.042,5.312 14.38,4 16,4C16,4 21,4 21,4C20.451,4 21,4.549 21,4L21,17C21,17 15,17 15,17C14.274,17 13.59,17.198 13,17.542ZM16,13L18,13C18.552,13 19,12.552 19,12C19,11.448 18.552,11 18,11L16,11C15.448,11 15,11.448 15,12C15,12.552 15.448,13 16,13ZM6,13L8,13C8.552,13 9,12.552 9,12C9,11.448 8.552,11 8,11L6,11C5.448,11 5,11.448 5,12C5,12.552 5.448,13 6,13ZM16,9L18,9C18.552,9 19,8.552 19,8C19,7.448 18.552,7 18,7L16,7C15.448,7 15,7.448 15,8C15,8.552 15.448,9 16,9ZM6,9L8,9C8.552,9 9,8.552 9,8C9,7.448 8.552,7 8,7L6,7C5.448,7 5,7.448 5,8C5,8.552 5.448,9 6,9Z" style="fill:url(#_Linear1);"/>
    <defs>
        <linearGradient id="_Linear1" x1="0" y1="0" x2="1" y2="0" gradientUnits="userSpaceOnUse" gradientTransform="matrix(13.7887,-3.01408,3.01408,13.7887,7.86972,13.2535)"><stop offset="0" style="stop-color:rgb(57,216,200);stop-opacity:1"/><stop offset="1" style="stop-color:rgb(160,238,229);stop-opacity:1"/></linearGradient>
    </defs>
</svg>
