<?xml version="1.0" encoding="UTF-8" standalone="no"?>
<!DOCTYPE svg PUBLIC "-//W3C//DTD SVG 1.1//EN" "http://www.w3.org/Graphics/SVG/1.1/DTD/svg11.dtd">
<svg width="100%" height="100%" viewBox="0 0 24 24" version="1.1" xmlns="http://www.w3.org/2000/svg" xmlns:xlink="http://www.w3.org/1999/xlink" xml:space="preserve" xmlns:serif="http://www.serif.com/" style="fill-rule:evenodd;clip-rule:evenodd;stroke-linejoin:round;stroke-miterlimit:2;">
    <path d="M8.308,22.362C11.05,23.339 14.071,23.188 16.703,21.944C17.201,21.708 17.415,21.111 17.179,20.612C16.943,20.114 16.346,19.9 15.847,20.136C13.695,21.154 11.223,21.277 8.98,20.478C8.46,20.293 7.887,20.565 7.702,21.084C7.517,21.604 7.789,22.177 8.308,22.362ZM1.913,16.399C2.531,17.82 3.441,19.094 4.586,20.139C4.994,20.511 5.627,20.482 5.999,20.074C6.371,19.666 6.342,19.033 5.934,18.661C4.998,17.807 4.252,16.764 3.747,15.601C3.527,15.095 2.938,14.863 2.431,15.083C1.925,15.303 1.693,15.892 1.913,16.399ZM12,3C12.001,3 12.001,3 12.002,3C16.939,3 21.002,7.063 21.002,12C21.002,14.248 20.16,16.416 18.642,18.075C18.27,18.482 18.298,19.115 18.705,19.488C19.112,19.86 19.745,19.832 20.118,19.425C21.972,17.398 23.002,14.748 23.002,12C23.002,5.966 18.036,1 12.002,1C12.001,1 12,1 12,1C11.448,1 11,1.448 11,2C11,2.552 11.448,3 12,3ZM12,7L11.976,7C11.884,7.002 11.795,7.017 11.711,7.042L11.708,7.043C11.556,7.09 11.413,7.173 11.293,7.293L7.293,11.293C6.903,11.683 6.903,12.317 7.293,12.707C7.683,13.097 8.317,13.097 8.707,12.707L11,10.414L11,16C11,16.552 11.448,17 12,17C12.552,17 13,16.552 13,16L13,10.414L15.293,12.707C15.683,13.097 16.317,13.097 16.707,12.707C17.097,12.317 17.097,11.683 16.707,11.293L12.707,7.293C12.587,7.173 12.444,7.09 12.292,7.043L12.289,7.042C12.205,7.017 12.116,7.002 12.024,7L12,7ZM1.55,8.563C1.2,9.628 1.014,10.741 1,11.863C0.993,12.414 1.436,12.868 1.988,12.875C2.539,12.882 2.993,12.439 3,11.887C3.011,10.97 3.163,10.059 3.45,9.187C3.622,8.663 3.337,8.098 2.812,7.925C2.288,7.753 1.723,8.038 1.55,8.563ZM5.372,5.911C5.624,5.638 5.891,5.381 6.174,5.14C6.595,4.783 6.646,4.151 6.289,3.731C5.932,3.31 5.3,3.259 4.88,3.616C4.534,3.91 4.206,4.224 3.9,4.559C3.526,4.965 3.553,5.598 3.96,5.971C4.366,6.345 4.999,6.318 5.372,5.911Z" style="fill:url(#_Linear1);"/>
    <defs>
        <linearGradient id="_Linear1" x1="0" y1="0" x2="1" y2="0" gradientUnits="userSpaceOnUse" gradientTransform="matrix(4.57929,-12.2254,12.2254,4.57929,8.01408,18.366)"><stop offset="0" style="stop-color:rgb(77,142,247);stop-opacity:1"/><stop offset="1" style="stop-color:rgb(117,171,243);stop-opacity:1"/></linearGradient>
    </defs>
</svg>
