<?xml version="1.0" encoding="UTF-8" standalone="no"?>
<!DOCTYPE svg PUBLIC "-//W3C//DTD SVG 1.1//EN" "http://www.w3.org/Graphics/SVG/1.1/DTD/svg11.dtd">
<svg width="100%" height="100%" viewBox="0 0 24 24" version="1.1" xmlns="http://www.w3.org/2000/svg" xmlns:xlink="http://www.w3.org/1999/xlink" xml:space="preserve" xmlns:serif="http://www.serif.com/" style="fill-rule:evenodd;clip-rule:evenodd;stroke-linejoin:round;stroke-miterlimit:2;">
    <path d="M15.594,4.478L5.857,7.679L5.842,7.684L5.832,7.688L2.605,8.749C1.6,9.095 1.017,10.163 1.268,11.196L1.806,13.348C2.049,14.364 3.075,15.01 4.097,14.788L7.455,14.072C7.472,14.069 7.488,14.065 7.505,14.061L9.088,13.724C9.217,14.243 9.481,14.709 9.841,15.082L7.106,20.553C6.859,21.046 7.059,21.648 7.553,21.894C8.046,22.141 8.648,21.941 8.894,21.447L11.629,15.977C11.751,15.992 11.874,16 12,16C12.126,16 12.249,15.992 12.371,15.977L15.106,21.447C15.352,21.941 15.954,22.141 16.447,21.894C16.941,21.648 17.141,21.046 16.894,20.553L14.159,15.082C14.68,14.542 15,13.808 15,13C15,12.82 14.984,12.644 14.954,12.472L17.583,11.912C18.291,12.476 19.244,12.72 20.182,12.485L21.273,12.213C22.337,11.946 22.994,10.851 22.727,9.787L21.212,3.727C20.945,2.663 19.852,2.007 18.788,2.273L17.697,2.545C16.684,2.798 15.917,3.553 15.594,4.478ZM12,12C12.552,12 13,12.448 13,13C13,13.552 12.552,14 12,14C11.448,14 11,13.552 11,13C11,12.448 11.448,12 12,12ZM5.449,9.919C4.133,10.352 3.249,10.643 3.247,10.644C3.219,10.659 3.204,10.691 3.211,10.722L3.735,12.82L6.051,12.327L5.449,9.919ZM15.613,6.577C13.812,7.169 10.208,8.354 7.354,9.293L8.008,11.909L9.333,11.627C9.831,10.661 10.839,10 12,10C12.708,10 13.36,10.246 13.874,10.658L16.494,10.099L15.613,6.577ZM20.787,10.273L19.698,10.545C19.166,10.678 18.618,10.349 18.485,9.817L17.455,5.698C17.322,5.165 17.651,4.618 18.183,4.485C18.183,4.485 19.272,4.213 19.272,4.213C18.74,4.346 19.405,4.745 19.272,4.213L20.787,10.273Z" style="fill:url(#_Linear1);"/>
    <defs>
        <linearGradient id="_Linear1" x1="0" y1="0" x2="1" y2="0" gradientUnits="userSpaceOnUse" gradientTransform="matrix(12.0272,-12.3099,12.3099,12.0272,9.78745,16.0224)"><stop offset="0" style="stop-color:rgb(98,108,213);stop-opacity:1"/><stop offset="1" style="stop-color:rgb(177,182,241);stop-opacity:1"/></linearGradient>
    </defs>
</svg>
