<?xml version="1.0" encoding="UTF-8" standalone="no"?>
<!DOCTYPE svg PUBLIC "-//W3C//DTD SVG 1.1//EN" "http://www.w3.org/Graphics/SVG/1.1/DTD/svg11.dtd">
<svg width="100%" height="100%" viewBox="0 0 24 24" version="1.1" xmlns="http://www.w3.org/2000/svg" xmlns:xlink="http://www.w3.org/1999/xlink" xml:space="preserve" xmlns:serif="http://www.serif.com/" style="fill-rule:evenodd;clip-rule:evenodd;stroke-linejoin:round;stroke-miterlimit:2;">
    <path d="M7,5L3,5C2.448,5 2,5.448 2,6C2,6.552 2.448,7 3,7L4,7L4,20C4,20.753 4.353,21.517 4.918,22.082C5.483,22.647 6.247,23 7,23L17,23C17.753,23 18.517,22.647 19.082,22.082C19.647,21.517 20,20.753 20,20L20,7L21,7C21.552,7 22,6.552 22,6C22,5.448 21.552,5 21,5L17,5L17,4C17,3.247 16.647,2.483 16.082,1.918C15.517,1.353 14.753,1 14,1L10,1C9.247,1 8.483,1.353 7.918,1.918C7.353,2.483 7,3.247 7,4L7,5ZM18,7L6,7L6,20C6,20.247 6.147,20.483 6.332,20.668C6.517,20.853 6.753,21 7,21C7,21 17,21 17,21C17.247,21 17.483,20.853 17.668,20.668C17.853,20.483 18,20.247 18,20L18,7ZM13,11L13,17C13,17.552 13.448,18 14,18C14.552,18 15,17.552 15,17L15,11C15,10.448 14.552,10 14,10C13.448,10 13,10.448 13,11ZM9,11L9,17C9,17.552 9.448,18 10,18C10.552,18 11,17.552 11,17L11,11C11,10.448 10.552,10 10,10C9.448,10 9,10.448 9,11ZM15,5L15,4C15,3.753 14.853,3.517 14.668,3.332C14.483,3.147 14.247,3 14,3C14,3 10,3 10,3C9.753,3 9.517,3.147 9.332,3.332C9.147,3.517 9,3.753 9,4L9,5L15,5Z" style="fill:url(#_Linear1);"/>
    <defs>
        <linearGradient id="_Linear1" x1="0" y1="0" x2="1" y2="0" gradientUnits="userSpaceOnUse" gradientTransform="matrix(3.08451,-6.47887,6.47887,3.08451,12.8556,12.0563)"><stop offset="0" style="stop-color:rgb(255,109,139);stop-opacity:1"/><stop offset="1" style="stop-color:rgb(255,151,172);stop-opacity:1"/></linearGradient>
    </defs>
</svg>
